<?xml version="1.0" encoding="UTF-8"?>
<svg width="20px" height="20px" viewBox="0 0 20 20" version="1.1" xmlns="http://www.w3.org/2000/svg" xmlns:xlink="http://www.w3.org/1999/xlink">
    <!-- Generator: Sketch 52.1 (67048) - http://www.bohemiancoding.com/sketch -->
    <title>Search-Icon</title>
    <desc>Created with Sketch.</desc>
    <g id="Symbols_styleguide" stroke="none" stroke-width="1" fill="none" fill-rule="evenodd">
        <g id="Search" transform="translate(-1370.000000, -38.000000)" fill="#354052">
            <path d="M1378.44782,37.999968 C1383.11225,37.999968 1386.89112,41.778768 1386.89112,46.443288 C1386.89112,48.475416 1386.17266,50.340504 1384.97731,51.797136 L1389.75173,56.571792 C1390.07825,56.897928 1390.07825,57.424464 1389.75173,57.750936 C1389.42523,58.077672 1388.89891,58.077672 1388.57239,57.750936 L1383.79798,52.976568 C1382.34086,54.171912 1380.4758,54.89028 1378.44365,54.89028 C1373.7834,54.88632 1369.99966,51.10752 1369.99966,46.443288 C1369.99966,41.778768 1373.7834,37.999968 1378.44782,37.999968 Z M1378.44782,53.22132 C1382.18981,53.22132 1385.22586,50.185368 1385.22586,46.443288 C1385.22586,42.700896 1382.18981,39.664968 1378.44782,39.664968 C1374.70514,39.664968 1371.6691,42.700896 1371.6691,46.443288 C1371.6691,50.185368 1374.70097,53.22132 1378.44782,53.22132 Z" id="Search-Icon"></path>
        </g>
    </g>
</svg>