<svg xmlns="http://www.w3.org/2000/svg" width="32" height="20" viewBox="0 0 32 20">
    <path fill="#CCD0D5" fill-rule="nonzero" d="M16 0c4.098 0 7.94 1.785 11.426 4.737a28.601 28.601 0 0 1 3.22 3.206c.328.384.617.741.863 1.063.15.197.255.34.312.423a1 1 0 0 1 0 1.142 12.59 12.59 0 0 1-.312.423 28.6 28.6 0 0 1-4.083 4.27C23.94 18.214 20.098 20 16 20s-7.94-1.785-11.426-4.737a28.6 28.6 0 0 1-3.22-3.206c-.328-.384-.617-.741-.863-1.063a12.59 12.59 0 0 1-.312-.423 1 1 0 0 1 0-1.142c.057-.082.162-.226.312-.423a28.601 28.601 0 0 1 4.083-4.27C8.06 1.786 11.902 0 16 0zm13.127 9.244a26.618 26.618 0 0 0-2.994-2.98C22.977 3.59 19.554 2 16 2 12.446 2 9.023 3.59 5.867 6.263A26.618 26.618 0 0 0 2.25 10a26.618 26.618 0 0 0 3.615 3.737C9.024 16.41 12.447 18 16 18c3.554 0 6.977-1.59 10.133-4.263A26.618 26.618 0 0 0 29.75 10a23.649 23.649 0 0 0-.622-.756zM16 6a4 4 0 1 0 0 8 4 4 0 0 0 0-8zm0-2a6 6 0 1 1 0 12 6 6 0 0 1 0-12z"/>
</svg>
