<?xml version="1.0" encoding="UTF-8"?>
<svg width="265px" height="107px" viewBox="0 0 265 107" version="1.1" xmlns="http://www.w3.org/2000/svg" xmlns:xlink="http://www.w3.org/1999/xlink">
    <!-- Generator: Sketch 52.1 (67048) - http://www.bohemiancoding.com/sketch -->
    <title>logo</title>
    <desc>Created with Sketch.</desc>
    <defs>
        <polygon id="path-1" points="0 0 18 0 18 65 0 65"></polygon>
        <polygon id="path-3" points="0 0 11 0 11 15 0 15"></polygon>
        <polygon id="path-5" points="1 0 12 0 12 15 1 15"></polygon>
        <polygon id="path-7" points="0 16 265 16 265 1 0 1"></polygon>
    </defs>
    <g id="Symbols_styleguide" stroke="none" stroke-width="1" fill="none" fill-rule="evenodd">
        <g id="Search" transform="translate(-255.000000, -157.000000)">
            <g id="logo" transform="translate(255.000000, 157.000000)">
                <g id="Group-8" transform="translate(23.000000, 0.000000)">
                    <path d="M134.661491,37.2298604 C134.375013,38.6406015 133.999782,40.0300752 133.538046,41.3900107 C133.084174,42.8740064 132.450552,44.2930183 131.650659,45.6068743 C130.650793,47.5292159 129.444213,49.3251343 128.055636,50.9591837 L126.437875,53.0622986 L124,55 L124,38.1880773 C127.356853,34.8809882 130.000319,30.8555317 131.751769,26.3834586 L132.875214,23.2996778 L133.268419,22 L133.841376,23.8077336 L134.414333,26.1707841 L134.98729,30.3888292 L134.98729,32.8121375 C135.041215,34.2937701 134.923254,35.7777658 134.639022,37.2298604 L134.661491,37.2298604 Z M175.09554,24.0578805 C170.310563,23.5571284 166.296244,23.2583503 162.557981,22.9703282 C158.474648,22.6476479 154.770892,22.4325277 150.4,22.468381 L141.589202,22.468381 L141.589202,25.5159177 L148.651643,25.5159177 C156.105164,25.5159177 163.97277,25.8027446 170.954695,26.4003008 L182.457042,27.4890482 C187.610094,28.0017515 190.991784,28.5156498 198.560329,29.879273 C204.035446,30.6668521 206.761502,31.2524572 211.638498,32.3400095 C206.966244,33.5877068 202.215775,34.4900167 197.421596,35.0409635 C190.957277,35.9851023 184.435446,36.3926356 177.752582,37.1563125 C169.700939,37.7538687 161.833333,38.6023985 153.735681,38.7697142 C149.916901,38.7697142 145.684038,39.4509283 141.612207,37.6355525 C140.686268,36.9328264 139.939765,36.0054192 139.438263,34.9334034 C138.956315,33.7179741 138.602042,32.4511549 138.380047,31.1568482 C138.069484,29.5195442 137.873944,27.9300447 137.666901,26.2807896 C137.229812,24.7271435 137.057277,23.0778884 136.620188,21.50034 C136.194601,19.6921349 135.580376,17.9377099 134.791315,16.2657477 C133.330516,12.6804105 132.237793,11.2223733 128.74108,7.625085 C127.234272,6.07024376 125.474413,4.80342462 123.542019,3.88557829 C122.755258,3.46728895 121.914437,3.16851085 121.046009,3 L121.046009,14.6045414 L123.956103,14.6045414 L123.956103,8.87995302 C124.910798,9.18948713 125.791878,9.70219035 126.544131,10.3857946 C127.541385,11.2653974 128.45007,12.2465847 129.258685,13.31382 C130.21338,14.5937854 130.40892,14.9272218 131.007042,17.5564691 C131.593662,21.1418063 129.856808,26.1851806 128.15446,28.9100369 C125.658451,33.1765882 124.071127,34.7660877 121,38.8306649 L121,61 C122.61838,60.7478313 124.138991,60.0355443 125.393897,58.9432116 C127.058286,57.7122458 128.559343,56.257794 129.856808,54.6180998 C131.590211,52.8505285 133.041808,50.8092765 134.158685,48.5696359 C135.019061,47.050648 135.739108,45.4503925 136.309624,43.7891863 C137.160798,41.3989615 137.1723,41.3989615 137.551878,40.1333375 C138.467465,40.5970411 139.432512,40.9460139 140.427465,41.1730852 C141.240681,41.3858153 142.074601,41.5065216 142.911972,41.531619 C147.21385,41.6021306 151.895305,41.3989615 157.40493,41.3033525 C164.306338,41.1730852 171.598826,40.7057963 178.776291,40.0126311 C183.37723,39.5584884 188.070188,38.9609322 192.579108,38.5318868 C196.232254,38.2916692 199.868146,37.8040634 203.460329,37.0726546 C208.814671,36.172735 214.036737,34.5653088 219,32.292205 C212.501174,28.9697925 209.211502,28.5276009 198.537324,26.8185902 C187.138498,25.0139705 183.503756,24.7032412 175.09554,24.0578805 Z" id="Fill-1" fill="#133478"></path>
                    <path d="M89.7092702,8.87150605 C88.3934111,10.2652482 87.1848984,11.7666667 86.096429,13.3600334 L84.134183,16.7838965 L83.430083,18.5502712 C83.0226284,20.0456404 83.1161236,21.6426366 83.6955633,23.0750939 C84.0822412,24.5281185 84.6108934,25.935169 85.2769027,27.2732582 L89.0513406,34.3992491 L92.4217867,39.5894869 L93.0220031,40.7267418 L93.0220031,58.1122236 L91.2559817,56.2611598 L87.5738848,52.0750939 C86.1864615,50.1986233 84.9987255,48.1697121 84.0302994,46.0258657 C83.3723698,44.0780142 82.6336419,42.0938673 82.0449681,40.1823112 C81.4562943,38.2707551 81.1677287,36.1414268 80.7175664,34.133083 L80.0480943,28.4952023 L80.0480943,26.0755111 L79.6441024,30.3220693 L79.1593123,34.8952858 C78.3513286,37.8340008 78.1435614,38.0166875 76.2390285,39.541093 C73.34183,40.654151 68.7016953,40.521068 63.1266082,40.521068 C55.2141397,40.568252 47.3051341,40.1327076 39.4411446,39.2144347 C26.3748948,37.5448477 15.7441385,36.2140175 8.91090537,34.1693784 C19.2992666,32.0158531 24.1587111,30.8785982 34.9626067,29.4993742 C44.4090898,28.0608678 53.9386798,27.3047142 63.4844295,27.2369629 L76.2505711,27.2369629 L76.2505711,24.1155611 L60.4256342,24.1155611 C51.3300469,24.1155611 30.5417819,27.0070922 21.6308765,28.59199 C14.2978478,29.8429704 7.06639413,31.6795161 0,34.0846892 C5.85211014,36.3700876 7.14488397,36.7342511 15.6287123,38.7304965 C24.98978,40.9324155 28.7411326,40.8356279 38.356138,41.9486859 C46.5006132,42.9927826 54.7016472,43.4743012 62.9072983,43.3884022 C70.8255381,43.3884022 72.1413971,43.3884022 79.4709631,42.057572 C80.3147289,44.808761 81.3293255,47.5006675 82.5066731,50.1151439 C84.2553805,53.2740509 86.3976915,56.1752607 88.8782013,58.7413433 C90.487243,60.1907384 92.2728869,61.4114727 94.1878081,62.3708803 L95.9653721,63 L95.9653721,40.7388402 C95.64795,39.6814351 95.2058675,38.6687943 94.649513,37.7263246 C94.0839245,36.8915311 93.4952507,36.0325407 92.9527474,35.1856487 L91.5330047,32.9595327 L89.6977275,29.7534418 L87.3892028,24.5994994 C85.2653601,20.0867751 86.3503667,18.1147267 88.058675,15.416771 C89.9632079,12.1985816 90.8058194,11.230705 93.056631,9.94826867 L93.056631,16.1184814 L96,16.1184814 L96,5 C94.8745942,5.17300793 93.8011302,5.61218189 92.8604064,6.28243638 C91.6992185,6.9853567 90.6384514,7.8576554 89.7092702,8.87150605" id="Fill-3" fill="#133478"></path>
                    <g id="Group-7" transform="translate(100.000000, 0.000000)">
                        <mask id="mask-2" fill="white">
                            <use xlink:href="#path-1"></use>
                        </mask>
                        <g id="Clip-6"></g>
                        <path d="M7.12727273,0.103826655 C4.67757576,0.171238743 2.26181818,0.685255921 0,1.62059865 L0,63.7962127 L3.11515152,64.4101442 L3.11515152,5.88200569 C4.24606061,4.59515707 5.76969697,3.71157719 7.45454545,3.36609024 L7.45454545,65 L10.5090909,65 L10.5090909,3.37812811 C12.1648485,3.84038243 13.6690909,4.72396231 14.8727273,5.94219506 L14.8727273,64.3860685 L18,63.7841748 L18,1.62059865 C15.7381818,0.839340695 13.390303,0.330138667 11.0060606,0.103826655 C9.71757576,-0.0346088849 8.41575758,-0.0346088849 7.12727273,0.103826655" id="Fill-5" fill="#133478" mask="url(#mask-2)"></path>
                    </g>
                </g>
                <g id="Group-45" transform="translate(0.000000, 91.000000)">
                    <g id="Group-3" transform="translate(0.000000, 1.000000)">
                        <mask id="mask-4" fill="white">
                            <use xlink:href="#path-3"></use>
                        </mask>
                        <g id="Clip-2"></g>
                        <path d="M8.62181937,7.13311792 C7.63139527,6.72705217 6.60743091,6.41683443 5.56373698,6.20555657 C4.59106949,6.06436111 3.65687465,5.71394905 2.82132762,5.17493283 C2.46422252,4.85234761 2.26495392,4.37929131 2.27876462,3.88665317 C2.28369701,3.27755454 2.56582977,2.70761962 3.03835282,2.35102381 C3.75157655,1.86560003 4.59698836,1.64092406 5.4453596,1.71203709 C6.30063619,1.64916905 7.15098039,1.89651874 7.85236638,2.41286123 C8.43340203,2.93332622 8.78853418,3.67640593 8.83884457,4.4741087 L10.5947757,4.34012761 C10.5770191,3.52593486 10.3412509,2.73235459 9.9141058,2.05214293 C9.47906891,1.35750253 8.84772287,0.820547565 8.10885071,0.516513565 C7.2456823,0.157856506 6.32332519,-0.0163189049 5.39603569,0.00120169852 C4.52793489,-0.0111657863 3.66673943,0.156825882 2.86078675,0.49590109 C2.15249541,0.781383864 1.54581132,1.28948136 1.12458514,1.94908055 C0.736899207,2.56024043 0.530725265,3.27755454 0.532698222,4.01032802 C0.523819918,4.65034535 0.69152121,5.28005645 1.01607253,5.82422578 C1.38600186,6.40343632 1.89699756,6.86927825 2.49578982,7.17434287 C3.35402584,7.57422488 4.24974804,7.87825888 5.16914571,8.08129176 C6.43183779,8.40078511 7.25061469,8.63679795 7.6254764,8.7821159 C8.10391832,8.94907694 8.53204985,9.24383533 8.86843892,9.63753359 C9.11703142,9.9766088 9.2492195,10.395042 9.24330063,10.8227509 C9.24527358,11.2721028 9.10716664,11.7101179 8.84870935,12.0698056 C8.54586055,12.4872082 8.13055323,12.8005178 7.65507074,12.9664482 C7.06515679,13.1952467 6.43972962,13.3075847 5.81035653,13.2962478 C5.08529506,13.3086153 4.36615246,13.1602055 3.69929321,12.8633859 C3.14094655,12.6325262 2.65757224,12.2398585 2.30835896,11.7286691 C1.98578059,11.1824386 1.78947143,10.5661256 1.73620161,9.92507761 L0,10.0807018 C0.0088783037,11.011355 0.27226798,11.9193345 0.759588205,12.6984861 C1.24296252,13.4632089 1.92757838,14.0650931 2.73254458,14.4299339 C3.73381994,14.8380609 4.80414878,15.0318182 5.87941,14.9957464 C6.79880768,15.013267 7.71228648,14.8195097 8.5527659,14.4299339 C9.29065158,14.09292 9.92101114,13.5425669 10.3678858,12.8427734 C10.7802336,12.1996642 11.0002183,11.4421557 10.9992318,10.6681573 C11.014029,9.93538385 10.8147604,9.21703911 10.4270745,8.60690986 C9.96638914,7.95040254 9.34194845,7.44127442 8.62181937,7.13311792" id="Fill-1" fill="#133478" mask="url(#mask-4)"></path>
                    </g>
                    <path d="M22.2306376,7.30635309 C21.4825578,7.82804299 20.5711506,8.06798052 19.6597435,7.98335525 L16,7.98335525 L16,3.00539823 L19.6194157,3.00539823 C20.2031599,2.98449081 20.7879123,3.02431446 21.363591,3.1248692 C21.8465158,3.25330049 22.2669326,3.54600436 22.5532596,3.95121006 C22.8537014,4.39524383 23.0089632,4.92091609 22.9968649,5.45455308 C23.0331599,6.15345825 22.752882,6.83245158 22.2306376,7.30635309 M23.4095527,1.79001808 C22.8749424,1.449051 22.2685034,1.22772149 21.634359,1.14198123 C20.9078636,1.0353044 20.1731591,0.98844635 19.4384547,1.00240407 L14,1.00240407 L14,15 L15.918851,15 L15.918851,9.31721533 L19.6128957,9.31721533 C21.6651427,9.31721533 23.0504095,8.90845362 23.8302634,8.08096041 C25.056481,6.72108001 25.3458478,4.78893322 24.5690723,3.14591057 C24.3063847,2.60654451 23.9072226,2.13995798 23.4095527,1.79001808" id="Fill-4" fill="#133478"></path>
                    <polygon id="Fill-6" fill="#133478" points="28.7792578 8.58664773 36.1817317 8.58664773 36.1817317 6.94602273 28.7792578 6.94602273 28.7792578 2.65056818 36.6955281 2.65056818 36.6955281 1 27 1 27 15 37 15 37 13.3494318 28.7792578 13.3494318"></polygon>
                    <polygon id="Fill-8" fill="#133478" points="39 2.65056818 43.5779891 2.65056818 43.5779891 15 45.4229976 15 45.4229976 2.65056818 50 2.65056818 50 1 39 1"></polygon>
                    <path d="M53.9444694,12.37 L61.7627819,2.62 L61.7627819,1 L51.7996226,1 L51.7996226,2.66 L59.5685147,2.66 C59.1138467,3.13 58.6295265,3.66 58.115554,4.33 L51,13.33 L51,15 L62,15 L62,13.38 L53.104322,13.38 L53.9444694,12.37 Z" id="Fill-10" fill="#133478"></path>
                    <polygon id="Fill-12" fill="#133478" points="63 2.65056818 67.578565 2.65056818 67.578565 15 69.4234081 15 69.4234081 2.65056818 74 2.65056818 74 1 63 1"></polygon>
                    <polygon id="Fill-14" fill="#133478" points="77.7809524 8.58664773 85.1809524 8.58664773 85.1809524 6.94602273 77.7809524 6.94602273 77.7809524 2.65056818 85.6952381 2.65056818 85.6952381 1 76 1 76 15 86 15 86 13.3494318 77.7809524 13.3494318"></polygon>
                    <polygon id="Fill-16" fill="#133478" points="100.74229 1 98.1342668 1 90.9276694 7.93039773 90.9276694 1 89 1 89 15 90.9276694 15 90.9276694 10.1477273 93.2893222 7.94034091 98.4641354 15 101 15 94.6500301 6.67755682"></polygon>
                    <polygon id="Fill-18" fill="#133478" points="111.133224 6.74715909 103.866776 6.74715909 103.866776 1 102 1 102 15 103.866776 15 103.866776 8.39772727 111.133224 8.39772727 111.133224 15 113 15 113 1 111.133224 1"></polygon>
                    <path d="M124.723892,13.4510133 C122.998255,15.4723376 120.159425,15.5220509 118.380735,13.5610173 C118.347227,13.5250545 118.31465,13.4880339 118.283004,13.4510133 C117.390402,12.2832781 116.933396,10.7654338 117.007858,9.22008856 C117.007858,6.98827577 117.454624,5.39110169 118.33885,4.42856631 C119.188638,3.49247422 120.329755,2.9794746 121.512756,3.00062922 C122.340205,2.98687871 123.154624,3.24390739 123.858281,3.74104105 C124.563801,4.24557882 125.116675,4.98387518 125.441511,5.85650341 C125.824055,6.8571171 126.011139,7.9391761 125.989731,9.02969695 C126.075362,10.6321597 125.62301,12.2124101 124.723892,13.4510133 M124.904343,1.9584682 C123.875735,1.31546074 122.701561,0.984712497 121.510035,1.00320153 C119.744918,0.944652927 118.03957,1.6914044 116.824907,3.05753845 C115.550476,4.60753566 114.899763,6.63003036 115.012554,8.68642162 C115.009661,9.93648563 115.276694,11.170115 115.793408,12.2917829 C116.290841,13.4062607 117.085192,14.3379025 118.078131,14.9726926 C119.105774,15.6516509 120.291516,16.0080784 121.500395,15.9998611 C122.652396,16.0070512 123.786082,15.7030094 124.797337,15.1164962 C125.822088,14.5197113 126.650179,13.6014227 127.168821,12.4869449 C127.733735,11.2646145 128.018121,9.91594226 127.99884,8.55288972 C128.020049,7.21448921 127.750124,5.88841473 127.207382,4.68046462 C126.710912,3.54955214 125.908849,2.60147565 124.904343,1.9584682" id="Fill-20" fill="#133478"></path>
                    <path d="M139.643178,8.14678438 C138.648173,7.74244646 137.621487,7.43117866 136.574009,7.21608329 C135.594844,7.07130757 134.655282,6.71970938 133.811756,6.18197098 C133.459296,5.85519149 133.264255,5.38156805 133.277126,4.88933059 C133.278116,4.27920433 133.558302,3.70734022 134.029568,3.34850325 C134.748348,2.86040223 135.600785,2.63496575 136.455202,2.70735361 C137.31358,2.64530687 138.167007,2.89349383 138.870936,3.41054998 C139.458038,3.92967436 139.815448,4.67733757 139.860991,5.47877461 L141.633189,5.34434001 C141.610417,4.52739128 141.374784,3.73422714 140.950051,3.04861067 C140.509476,2.3619601 139.881782,1.82835815 139.148151,1.51812445 C138.281853,1.16032159 137.356152,0.984522498 136.4255,1.0010683 C135.551282,0.988658947 134.683004,1.15721925 133.871159,1.49744221 C133.16129,1.78595954 132.553396,2.2947428 132.128662,2.95554057 C131.739571,3.56876917 131.532649,4.28851134 131.53463,5.02376519 C131.529679,5.66801716 131.701949,6.29882567 132.029657,6.84380286 C132.400928,7.42497398 132.913776,7.89239275 133.514739,8.19848999 C134.372127,8.60179379 135.268126,8.90685693 136.187887,9.10850883 C137.465058,9.42908364 138.286803,9.66692948 138.653124,9.8117052 C139.13528,9.97406083 139.566944,10.2708511 139.900593,10.6700184 C140.150087,11.0112755 140.282754,11.4290569 140.276814,11.8592476 C140.276814,12.3080523 140.141176,12.7454818 139.890692,13.1105235 C139.582785,13.5252025 139.167952,13.8375044 138.692726,14.0091671 C138.100673,14.2397741 137.472978,14.3514583 136.841323,14.3411171 C136.110663,14.3524924 135.384953,14.2046143 134.712706,13.90679 C134.153325,13.6730806 133.670178,13.2780497 133.316728,12.7692664 C132.99595,12.2201528 132.80388,11.5996854 132.752397,10.9595699 L131,11.1146867 C131.009901,12.0257397 131.260384,12.9171445 131.72274,13.6896264 C132.203907,14.4590059 132.893975,15.0639616 133.70285,15.4269351 C134.707755,15.8395459 135.782955,16.0318908 136.861124,15.9956968 C137.780885,16.0122426 138.693716,15.8178295 139.534272,15.4269351 C140.278794,15.0898144 140.913419,14.5365644 141.365874,13.8344021 C141.774766,13.1870478 141.995549,12.4280094 141.999509,11.6524251 C142.01139,10.9161372 141.807438,10.1953609 141.415377,9.58420049 C140.959951,8.94615319 140.348098,8.44874517 139.643178,8.14678438" id="Fill-22" fill="#133478"></path>
                    <polygon id="Fill-24" fill="#133478" points="153.232852 11.9872159 145.886282 1 144 1 144 15 145.767148 15 145.767148 4.01278409 153.103791 15 155 15 155 1 153.232852 1"></polygon>
                    <path d="M161,9 L162.608921,4.77339181 C162.935685,3.86769006 163.202282,2.94152047 163.406639,2 C163.634855,2.7880117 163.977178,3.79093567 164.443983,4.99853801 L166,8.95906433 L161,9 Z M162.327238,1 L157,15 L158.972686,15 L160.481791,10.74 L166.330804,10.74 L167.909939,15 L170,15 L164.339378,1 L162.327238,1 Z" id="Fill-26" fill="#133478"></path>
                    <g id="Group-30" transform="translate(170.000000, 1.000000)">
                        <mask id="mask-6" fill="white">
                            <use xlink:href="#path-5"></use>
                        </mask>
                        <g id="Clip-29"></g>
                        <path d="M9.62244199,7.13311792 C8.63194637,6.72705217 7.60790806,6.41683443 6.56315222,6.20555657 C5.58844139,6.06126924 4.65220598,5.71085717 3.81067932,5.17493283 C3.46045427,4.84925573 3.26511749,4.37723006 3.27794263,3.88665317 C3.28386192,3.27755454 3.56502851,2.70761962 4.03857224,2.35102381 C4.75086092,1.86456941 5.59732033,1.63886281 6.44476629,1.71203709 C7.30010464,1.64916905 8.1514968,1.89651874 8.85293344,2.41286123 C9.43401105,2.93332622 9.78916885,3.67640593 9.83948287,4.4741087 L11.5955408,4.34012761 C11.5767964,3.52593486 11.3419976,2.73235459 10.9148217,2.05214293 C10.4738342,1.36162502 9.84540217,0.826731308 9.10844974,0.516513565 C8.24620554,0.157856506 7.32378183,-0.0163189049 6.39543882,0.00120169852 C5.52826187,-0.0111657863 4.66601767,0.156825882 3.86000679,0.49590109 C3.1516643,0.781383864 2.54592295,1.28948136 2.1236798,1.94908055 C1.73300622,2.5592098 1.52385775,3.27652392 1.5228712,4.01032802 C1.5169519,4.65137598 1.6886115,5.28108708 2.01614591,5.82422578 C2.38610195,6.40343632 2.89713455,6.86927825 3.49597005,7.17434287 C4.35229495,7.57731675 5.24808183,7.88135075 6.169519,8.08129176 C7.43131572,8.40078511 8.25015174,8.63679795 8.62504052,8.7821159 C9.10253045,8.94598507 9.5287198,9.24177408 9.85822731,9.63753359 C10.1147302,9.97351693 10.250874,10.3929808 10.2439681,10.8227509 C10.2390354,11.2710722 10.1009185,11.707026 9.84836181,12.0698056 C9.54450459,12.485147 9.12916728,12.797426 8.65562356,12.9664482 C8.065667,13.1952467 7.43920811,13.3075847 6.80978958,13.2962478 C6.0817161,13.3075847 5.36054847,13.1591749 4.68969486,12.8633859 C4.13525408,12.6294343 3.65579106,12.2377973 3.30852566,11.7286691 C2.98099125,11.1855304 2.78368136,10.5671562 2.73632699,9.92507761 L1,10.0807018 C1.0078924,11.011355 1.27130109,11.9193345 1.75865651,12.6984861 C2.24206573,13.4632089 2.92771758,14.0650931 3.73175536,14.4299339 C4.73408958,14.8380609 5.80449571,15.0318182 6.87983459,14.9957464 C7.79929865,15.0122364 8.71185687,14.8195097 9.55338353,14.4299339 C10.2913225,14.09292 10.920741,13.5425669 11.3686345,12.8427734 C11.7810121,12.1996642 12.0010127,11.4421557 11.9990396,10.6681573 C12.0158109,9.93435323 11.8125817,9.21394724 11.4169754,8.60690986 C10.960203,7.95143317 10.3396634,7.44127442 9.62244199,7.13311792" id="Fill-28" fill="#133478" mask="url(#mask-6)"></path>
                    </g>
                    <polygon id="Fill-31" fill="#133478" points="184 2.65056818 188.578565 2.65056818 188.578565 15 190.422422 15 190.422422 2.65056818 195 2.65056818 195 1 184 1"></polygon>
                    <polygon id="Fill-33" fill="#133478" points="207.74229 1 205.134267 1 197.927669 7.93039773 197.927669 1 196 1 196 15 197.927669 15 197.927669 10.1477273 200.289322 7.94034091 205.463105 15 208 15 201.65003 6.67755682"></polygon>
                    <path d="M212,9 L213.622385,4.77339181 C213.943515,3.86564327 214.209205,2.93947368 214.417364,2 C214.646444,2.7880117 215.002092,3.79093567 215.463389,4.99853801 L217,9 L212,9 Z M213.327238,1 L208,15 L209.972686,15 L211.4522,10.78 L217.301214,10.78 L218.908953,15 L221,15 L215.339378,1 L213.327238,1 Z" id="Fill-35" fill="#133478"></path>
                    <polygon id="Fill-37" fill="#133478" points="228.916856 1 227 1 227 15 236 15 236 13.3494318 228.916856 13.3494318"></polygon>
                    <polygon id="Fill-39" fill="#133478" points="235 2.65056818 239.577989 2.65056818 239.577989 15 241.422998 15 241.422998 2.65056818 246 2.65056818 246 1 235 1"></polygon>
                    <path d="M257.639564,11.167195 C257.444441,11.8430431 257.092193,12.4647826 256.612603,12.9834092 C256.249058,13.3346052 255.805411,13.5898349 255.318632,13.7297007 C254.590516,13.9328635 253.8357,14.0227044 253.080883,13.9951396 L250,13.9951396 L250,3.01005537 L253.028508,3.01005537 C253.864455,2.96615587 254.702455,3.06620589 255.503485,3.30612176 C256.249058,3.64200399 256.862154,4.21269749 257.249319,4.92938235 C257.802851,5.99624229 258.058564,7.19071706 257.988731,8.39029642 C258.021593,9.32852062 257.90452,10.2657239 257.639564,11.167195 M257.724108,2.20080663 C257.105675,1.70901627 256.37611,1.36685787 255.594065,1.20326027 C254.746164,1.04963813 253.883857,0.982802523 253.02155,1.003751 L248,1.003751 L248,14.9993264 L253.217061,14.9993264 C253.999106,15.0083043 254.780121,14.9275031 255.542615,14.7589177 C256.156931,14.6232514 256.742436,14.3828428 257.271345,14.0506598 C257.786877,13.7075039 258.232437,13.2735712 258.588473,12.7738005 C259.042264,12.1692874 259.38904,11.494946 259.617479,10.7787078 C259.887078,9.85797247 260.015704,8.90332061 259.998211,7.94667365 C260.020849,6.8114659 259.828425,5.68224342 259.432258,4.61387127 C259.08857,3.68016788 258.498949,2.84821421 257.724108,2.20080663" id="Fill-41" fill="#133478"></path>
                    <mask id="mask-8" fill="white">
                        <use xlink:href="#path-7"></use>
                    </mask>
                    <g id="Clip-44"></g>
                    <polygon id="Fill-43" fill="#133478" mask="url(#mask-8)" points="263 15 265 15 265 13 263 13"></polygon>
                </g>
            </g>
        </g>
    </g>
</svg>