<svg xmlns="http://www.w3.org/2000/svg" width="18" height="18" viewBox="0 0 18 18">
    <g fill="#CCD0D5" fill-rule="evenodd" opacity=".6">
        <path d="M3.851 1.502a.406.406 0 0 0-.252.09l-1.106.936a2.79 2.79 0 0 0-.64 3.487c2.325 4.198 5.752 7.6 10.179 10.11a2.803 2.803 0 0 0 3.531-.613l.84-.996a.382.382 0 0 0 .086-.316.373.373 0 0 0-.185-.266l-2.76-1.639-1.697.808a.741.741 0 0 1-.703-.03A17.156 17.156 0 0 1 4.976 6.91a.742.742 0 0 1 .026-.805l1.11-1.63L4.17 1.67a.387.387 0 0 0-.271-.166c-.011 0-.03-.003-.049-.003zM13.431 18a4.33 4.33 0 0 1-2.144-.567C6.616 14.783 3.001 11.186.537 6.744a4.302 4.302 0 0 1 .986-5.366L2.629.446c.41-.346.944-.5 1.47-.429.527.068 1.005.36 1.305.797l2.238 3.228c.177.256.18.594.004.853L6.518 6.553a15.705 15.705 0 0 0 5.047 5.02l1.693-.808a.756.756 0 0 1 .71.03l3.107 1.846c.478.282.805.759.9 1.308.09.552-.06 1.108-.422 1.537l-.839.996A4.29 4.29 0 0 1 13.431 18zM17.438 9a.56.56 0 0 1-.561-.562c0-4.032-3.283-7.315-7.315-7.315a.56.56 0 1 1 0-1.123C14.215 0 18 3.785 18 8.438a.56.56 0 0 1-.562.562"/>
        <path d="M14.429 10a.573.573 0 0 1-.572-.571 4.287 4.287 0 0 0-4.286-4.286.57.57 0 1 1 0-1.143A5.433 5.433 0 0 1 15 9.429a.573.573 0 0 1-.571.571"/>
    </g>
</svg>
