<svg xmlns="http://www.w3.org/2000/svg" width="97" height="97" viewBox="0 0 97 97">
    <g fill="#CCD0D5" fill-rule="nonzero">
        <path d="M48 20c-15.464 0-28 12.536-28 28s12.536 28 28 28 28-12.536 28-28-12.536-28-28-28zm0-2c16.569 0 30 13.431 30 30 0 16.569-13.431 30-30 30-16.569 0-30-13.431-30-30 0-16.569 13.431-30 30-30z" opacity=".2"/>
        <path d="M48.5 1C22.266 1 1 22.266 1 48.5S22.266 96 48.5 96 96 74.734 96 48.5 74.734 1 48.5 1zm0-1C75.286 0 97 21.714 97 48.5S75.286 97 48.5 97 0 75.286 0 48.5 21.714 0 48.5 0z" opacity=".2"/>
        <path d="M44 53.814V41.186a2 2 0 0 1 3.257-1.556l7.817 6.314a2 2 0 0 1 0 3.112l-7.817 6.314A2 2 0 0 1 44 53.814z"/>
    </g>
</svg>
