<svg xmlns="http://www.w3.org/2000/svg" width="15" height="20" viewBox="0 0 15 20">
    <g fill="#CCD0D5" fill-rule="evenodd" opacity=".6">
        <path d="M7.438 4a3.437 3.437 0 1 0 3.438 3.438A3.44 3.44 0 0 0 7.436 4zm0 1.25A2.189 2.189 0 1 1 5.25 7.438c0-1.205.981-2.188 2.188-2.188z"/>
        <path d="M7.327 1.667a5.668 5.668 0 0 0-5.66 5.658c0 1.08.303 2.125.877 3.03l4.783 7.29 4.786-7.295a5.64 5.64 0 0 0 .873-3.025 5.667 5.667 0 0 0-5.66-5.658zm0 18.333a.835.835 0 0 1-.697-.375l-5.487-8.367A7.31 7.31 0 0 1 0 7.325C0 3.288 3.287 0 7.327 0s7.326 3.288 7.326 7.325a7.31 7.31 0 0 1-1.143 3.933l-5.487 8.367a.835.835 0 0 1-.696.375z"/>
    </g>
</svg>
